# xmcd
#
# Track frame offsets:
#	150
#	11115
#	28377
#	39121
#	65186
#	80220
#	113853
#	132971
#	143618
#	167032
#	180507
#	213448
#	236837
#
# Disc length: 3395 seconds
#
# Revision: 0
# Processed by: cddbd v1.5.2PL0 Copyright (c) Steve Scherf et al.
# Submitted via: dBpowerAMP V4.0
#
DISCID=bb0d410d
DTITLE=Los Pacaminos - Live
DYEAR=1900
DGENRE=
TTITLE0=Tico
TTITLE1=Better Than Nada
TTITLE2=No Seas Tonta Mujer
TTITLE3=Nothing You Can Do
TTITLE4=Highway Patrol
TTITLE5=Belle
TTITLE6=Ain't Got No Home
TTITLE7=El Guero Polkas
TTITLE8=Shadows on the Rise
TTITLE9=Guacamole
TTITLE10=I Told Her Lies
TTITLE11=Raised on Margaritas
TTITLE12=Wooly Bully
EXTD=Live recording over 3rd and 4th October 2003 at Phoenix Arts Centre, Exeter and The Elgiva Theatre, Chesham
EXTT0=
EXTT1=
EXTT2=
EXTT3=
EXTT4=
EXTT5=
EXTT6=
EXTT7=
EXTT8=
EXTT9=
EXTT10=
EXTT11=
EXTT12=
PLAYORDER=
